# xmcd CD database file
#
# Track frame offsets:
#	150
#	25961
#	52048
#	71055
#	100148
#	113828
#	136001
#	154154
#	185156
#	203744
#	211258
#
# Disc length: 2929 seconds
#
# Revision: 1
# Processed by: cddbd v1.5.2PL0 Copyright (c) Steve Scherf et al.
# Submitted via: CDex 1.50Beta6
#
DISCID=9d0b6f0b
DTITLE=Lois Hartzler - NightSound
DYEAR=2005
DGENRE=Jazz
TTITLE0=How Long Has This Been Going On
TTITLE1=Don't Go To Strangers
TTITLE2='Deed I Do
TTITLE3=Miss Celie's Blues (Sister)
TTITLE4=Keepin' Out Of Mischief
TTITLE5=You've Changed
TTITLE6=Like Someone In Love
TTITLE7=Angel Eyes
TTITLE8=Small Day Tomorrow
TTITLE9=I Want To Be Happy
TTITLE10=For Farmer
EXTD=YEAR: 2005
EXTT0=
EXTT1=
EXTT2=
EXTT3=
EXTT4=
EXTT5=
EXTT6=
EXTT7=
EXTT8=
EXTT9=
EXTT10=
PLAYORDER=
